<svg width="190" height="36" viewBox="0 0 190 36" fill="none" xmlns="http://www.w3.org/2000/svg">
<path d="M28.9531 31.5547C27.3906 32.8984 25.6406 33.9297 23.7031 34.6484C21.7656 35.3672 19.7578 35.7266 17.6797 35.7266C16.0859 35.7266 14.5469 35.5156 13.0625 35.0938C11.5938 34.6875 10.2109 34.1094 8.91406 33.3594C7.63281 32.5938 6.46094 31.6797 5.39844 30.6172C4.33594 29.5547 3.42188 28.3828 2.65625 27.1016C1.90625 25.8047 1.32031 24.4219 0.898438 22.9531C0.492188 21.4688 0.289062 19.9297 0.289062 18.3359C0.289062 16.7422 0.492188 15.2031 0.898438 13.7188C1.32031 12.2344 1.90625 10.8516 2.65625 9.57031C3.42188 8.27344 4.33594 7.09375 5.39844 6.03125C6.46094 4.96875 7.63281 4.0625 8.91406 3.3125C10.2109 2.54687 11.5938 1.96094 13.0625 1.55469C14.5469 1.13281 16.0859 0.921875 17.6797 0.921875C19.7578 0.921875 21.7656 1.28125 23.7031 2C25.6406 2.70312 27.3906 3.73438 28.9531 5.09375L25.3906 10.9531C24.4062 9.89062 23.2422 9.07812 21.8984 8.51562C20.5547 7.9375 19.1484 7.64844 17.6797 7.64844C16.1953 7.64844 14.8047 7.92969 13.5078 8.49219C12.2109 9.05469 11.0781 9.82031 10.1094 10.7891C9.14062 11.7422 8.375 12.875 7.8125 14.1875C7.25 15.4844 6.96875 16.8672 6.96875 18.3359C6.96875 19.8047 7.25 21.1875 7.8125 22.4844C8.375 23.7656 9.14062 24.8906 10.1094 25.8594C11.0781 26.8281 12.2109 27.5938 13.5078 28.1562C14.8047 28.7188 16.1953 29 17.6797 29C19.1484 29 20.5547 28.7188 21.8984 28.1562C23.2422 27.5781 24.4062 26.7578 25.3906 25.6953L28.9531 31.5547ZM64.8125 18.3359C64.8125 19.9297 64.6016 21.4688 64.1797 22.9531C63.7734 24.4219 63.1953 25.8047 62.4453 27.1016C61.6953 28.3828 60.7891 29.5547 59.7266 30.6172C58.6641 31.6797 57.4922 32.5938 56.2109 33.3594C54.9297 34.1094 53.5469 34.6875 52.0625 35.0938C50.5781 35.5156 49.0391 35.7266 47.4453 35.7266C45.8516 35.7266 44.3125 35.5156 42.8281 35.0938C41.3594 34.6875 39.9766 34.1094 38.6797 33.3594C37.3984 32.5938 36.2266 31.6797 35.1641 30.6172C34.1016 29.5547 33.1875 28.3828 32.4219 27.1016C31.6719 25.8047 31.0859 24.4219 30.6641 22.9531C30.2578 21.4688 30.0547 19.9297 30.0547 18.3359C30.0547 16.7422 30.2578 15.2031 30.6641 13.7188C31.0859 12.2344 31.6719 10.8516 32.4219 9.57031C33.1875 8.28906 34.1016 7.11719 35.1641 6.05469C36.2266 4.99219 37.3984 4.08594 38.6797 3.33594C39.9766 2.58594 41.3594 2.00781 42.8281 1.60156C44.3125 1.17969 45.8516 0.96875 47.4453 0.96875C49.0391 0.96875 50.5781 1.17969 52.0625 1.60156C53.5469 2.00781 54.9297 2.58594 56.2109 3.33594C57.4922 4.08594 58.6641 4.99219 59.7266 6.05469C60.7891 7.11719 61.6953 8.28906 62.4453 9.57031C63.1953 10.8516 63.7734 12.2344 64.1797 13.7188C64.6016 15.2031 64.8125 16.7422 64.8125 18.3359ZM58.1328 18.3359C58.1328 16.8672 57.8516 15.4844 57.2891 14.1875C56.7266 12.875 55.9609 11.7422 54.9922 10.7891C54.0391 9.82031 52.9062 9.05469 51.5938 8.49219C50.2969 7.92969 48.9141 7.64844 47.4453 7.64844C45.9609 7.64844 44.5703 7.92969 43.2734 8.49219C41.9766 9.05469 40.8438 9.82031 39.875 10.7891C38.9062 11.7422 38.1406 12.875 37.5781 14.1875C37.0156 15.4844 36.7344 16.8672 36.7344 18.3359C36.7344 19.8047 37.0156 21.1875 37.5781 22.4844C38.1406 23.7656 38.9062 24.8906 39.875 25.8594C40.8438 26.8281 41.9766 27.5938 43.2734 28.1562C44.5703 28.7188 45.9609 29 47.4453 29C48.9141 29 50.2969 28.7188 51.5938 28.1562C52.9062 27.5938 54.0391 26.8281 54.9922 25.8594C55.9609 24.8906 56.7266 23.7656 57.2891 22.4844C57.8516 21.1875 58.1328 19.8047 58.1328 18.3359ZM94.3203 1.39062L83.2812 35H76.5547L65.5625 1.39062H73.2031L79.9062 23.8203L86.6328 1.39062H94.3203ZM120.594 35H97.5547V1.39062H120.594V8.11719H104.281V14.8438H115.32V21.5703H104.281V28.2734H120.594V35ZM132.031 8.11719V21.5703H138.758C139.68 21.5703 140.547 21.3984 141.359 21.0547C142.172 20.6953 142.883 20.2109 143.492 19.6016C144.102 18.9922 144.578 18.2812 144.922 17.4688C145.281 16.6406 145.461 15.7656 145.461 14.8438C145.461 13.9219 145.281 13.0547 144.922 12.2422C144.578 11.4141 144.102 10.6953 143.492 10.0859C142.883 9.47656 142.172 9 141.359 8.65625C140.547 8.29688 139.68 8.11719 138.758 8.11719H132.031ZM132.031 35H125.305V1.39062H138.758C139.992 1.39062 141.18 1.55469 142.32 1.88281C143.461 2.19531 144.523 2.64844 145.508 3.24219C146.508 3.82031 147.414 4.52344 148.227 5.35156C149.055 6.16406 149.758 7.07031 150.336 8.07031C150.93 9.07031 151.383 10.1406 151.695 11.2812C152.023 12.4219 152.188 13.6094 152.188 14.8438C152.188 16 152.039 17.125 151.742 18.2188C151.461 19.3125 151.047 20.3516 150.5 21.3359C149.969 22.3203 149.312 23.2266 148.531 24.0547C147.75 24.8828 146.875 25.6016 145.906 26.2109L149.633 35H142.484L139.555 28.2266L132.031 28.2734V35ZM189.547 18.3359C189.547 19.9297 189.336 21.4688 188.914 22.9531C188.508 24.4219 187.93 25.8047 187.18 27.1016C186.43 28.3828 185.523 29.5547 184.461 30.6172C183.398 31.6797 182.227 32.5938 180.945 33.3594C179.664 34.1094 178.281 34.6875 176.797 35.0938C175.312 35.5156 173.773 35.7266 172.18 35.7266C170.586 35.7266 169.047 35.5156 167.562 35.0938C166.094 34.6875 164.711 34.1094 163.414 33.3594C162.133 32.5938 160.961 31.6797 159.898 30.6172C158.836 29.5547 157.922 28.3828 157.156 27.1016C156.406 25.8047 155.82 24.4219 155.398 22.9531C154.992 21.4688 154.789 19.9297 154.789 18.3359C154.789 16.7422 154.992 15.2031 155.398 13.7188C155.82 12.2344 156.406 10.8516 157.156 9.57031C157.922 8.28906 158.836 7.11719 159.898 6.05469C160.961 4.99219 162.133 4.08594 163.414 3.33594C164.711 2.58594 166.094 2.00781 167.562 1.60156C169.047 1.17969 170.586 0.96875 172.18 0.96875C173.773 0.96875 175.312 1.17969 176.797 1.60156C178.281 2.00781 179.664 2.58594 180.945 3.33594C182.227 4.08594 183.398 4.99219 184.461 6.05469C185.523 7.11719 186.43 8.28906 187.18 9.57031C187.93 10.8516 188.508 12.2344 188.914 13.7188C189.336 15.2031 189.547 16.7422 189.547 18.3359ZM182.867 18.3359C182.867 16.8672 182.586 15.4844 182.023 14.1875C181.461 12.875 180.695 11.7422 179.727 10.7891C178.773 9.82031 177.641 9.05469 176.328 8.49219C175.031 7.92969 173.648 7.64844 172.18 7.64844C170.695 7.64844 169.305 7.92969 168.008 8.49219C166.711 9.05469 165.578 9.82031 164.609 10.7891C163.641 11.7422 162.875 12.875 162.312 14.1875C161.75 15.4844 161.469 16.8672 161.469 18.3359C161.469 19.8047 161.75 21.1875 162.312 22.4844C162.875 23.7656 163.641 24.8906 164.609 25.8594C165.578 26.8281 166.711 27.5938 168.008 28.1562C169.305 28.7188 170.695 29 172.18 29C173.648 29 175.031 28.7188 176.328 28.1562C177.641 27.5938 178.773 26.8281 179.727 25.8594C180.695 24.8906 181.461 23.7656 182.023 22.4844C182.586 21.1875 182.867 19.8047 182.867 18.3359Z" fill="#5F85DB"/>
</svg>
